<?xml version="1.0" encoding="UTF-8" standalone="no"?>
<!-- Created with Inkscape (http://www.inkscape.org/) -->

<svg
   xmlns:dc="http://purl.org/dc/elements/1.1/"
   xmlns:cc="http://creativecommons.org/ns#"
   xmlns:rdf="http://www.w3.org/1999/02/22-rdf-syntax-ns#"
   xmlns:svg="http://www.w3.org/2000/svg"
   xmlns="http://www.w3.org/2000/svg"
   xmlns:sodipodi="http://sodipodi.sourceforge.net/DTD/sodipodi-0.dtd"
   xmlns:inkscape="http://www.inkscape.org/namespaces/inkscape"
   width="83.542053mm"
   height="74.905312mm"
   viewBox="0 0 83.542053 74.905312"
   version="1.1"
   id="svg8"
   inkscape:version="0.92.3 (2405546, 2018-03-11)"
   sodipodi:docname="cat_export.svg">
  <defs
     id="defs2" />
  <sodipodi:namedview
     id="base"
     pagecolor="#ffffff"
     bordercolor="#666666"
     borderopacity="1.0"
     inkscape:pageopacity="0.0"
     inkscape:pageshadow="2"
     inkscape:zoom="22.4"
     inkscape:cx="160.36301"
     inkscape:cy="80.664259"
     inkscape:document-units="mm"
     inkscape:current-layer="layer1"
     showgrid="false"
     inkscape:window-width="1856"
     inkscape:window-height="1057"
     inkscape:window-x="56"
     inkscape:window-y="-8"
     inkscape:window-maximized="1" />
  <metadata
     id="metadata5">
    <rdf:RDF>
      <cc:Work
         rdf:about="">
        <dc:format>image/svg+xml</dc:format>
        <dc:type
           rdf:resource="http://purl.org/dc/dcmitype/StillImage" />
        <dc:title></dc:title>
      </cc:Work>
    </rdf:RDF>
  </metadata>
  <g
     inkscape:label="Layer 1"
     inkscape:groupmode="layer"
     id="layer1"
     transform="translate(-3.9485143e-7,0.15531492)">
    <g
       id="g4636"
       transform="translate(-63.117402,-34.32907)">
      <path
         sodipodi:nodetypes="cccccccc"
         inkscape:connector-curvature="0"
         id="path4603"
         d="m 81.316754,55.254712 c 3.42485,-6.728087 4.030634,-14.451137 15.969354,-18.174329 9.395572,-3.619051 17.373962,-2.514186 25.190152,-0.868625 5.58717,3.05861 8.51339,6.87749 11.69304,10.623963 3.63004,4.016189 2.62517,7.104412 6.08038,12.49485 0.9579,1.403166 0.50116,2.806331 0.26727,4.209497 l -3.67495,1.00226 z"
         style="fill:#db302c;fill-opacity:1;fill-rule:evenodd;stroke:#000000;stroke-width:1;stroke-linecap:round;stroke-linejoin:miter;stroke-miterlimit:4;stroke-dasharray:none;stroke-opacity:1" />
      <path
         sodipodi:nodetypes="cccc"
         inkscape:connector-curvature="0"
         id="path4605"
         d="m 140.51695,63.540068 c 6.39431,0.483521 4.40671,5.775306 1.87089,6.681737 -3.76902,1.463006 -5.56316,-0.88174 -6.5481,-1.870887 0.3177,-2.356225 0.007,-5.093422 4.67721,-4.81085 z"
         style="fill:#faece1;fill-opacity:1;fill-rule:evenodd;stroke:#000000;stroke-width:1;stroke-linecap:round;stroke-linejoin:miter;stroke-miterlimit:4;stroke-dasharray:none;stroke-opacity:1" />
      <path
         sodipodi:nodetypes="cccccccccc"
         inkscape:connector-curvature="0"
         id="path4547"
         d="m 88.635416,62.087796 c 14.253154,-7.526541 23.556964,-2.947071 33.450894,0.188989 3.02924,-3.137173 5.3951,-6.854804 12.28422,-6.614583 3.47025,6.236607 2.24908,12.473213 1.32292,18.70982 3.54598,6.047619 2.70687,12.095238 0.75595,18.142857 -5.55332,11.048861 -15.74066,16.100731 -29.86012,16.063991 C 87.822016,108.43964 79.010952,102.00465 73.799851,92.32589 73.114815,86.404264 70.750512,80.104661 74.839284,74.183035 72.956183,67.946428 71.923852,61.70982 75.028273,55.473213 c 5.676554,-0.533153 10.445873,1.111055 13.607143,6.614583 z"
         style="fill:#e89830;fill-opacity:1;fill-rule:evenodd;stroke:#000000;stroke-width:1;stroke-linecap:round;stroke-linejoin:miter;stroke-miterlimit:4;stroke-dasharray:none;stroke-opacity:1" />
      <path
         sodipodi:nodetypes="cccc"
         inkscape:connector-curvature="0"
         id="path4551"
         d="m 77.107142,72.19866 c 2.477403,-2.793177 4.983564,-5.563348 8.693451,-7.370537 -1.631874,-2.366411 -4.18792,-5.050917 -8.382293,-5.775599 -2.297628,4.315228 -0.855355,8.830908 -0.311158,13.146136 z"
         style="fill:#df6f1b;fill-opacity:1;fill-rule:evenodd;stroke:none;stroke-width:0.26458332px;stroke-linecap:butt;stroke-linejoin:miter;stroke-opacity:1" />
      <path
         sodipodi:nodetypes="cccc"
         inkscape:connector-curvature="0"
         id="path4553"
         d="m 124.07068,65.017112 c 2.2245,-2.519913 5.2355,-5.518693 8.70017,-6.054334 2.67673,4.446419 0.44119,9.207338 0.37126,13.424869 -2.35763,-2.699093 -4.08369,-5.627845 -9.07143,-7.370535 z"
         style="fill:#df6f1b;fill-opacity:1;fill-rule:evenodd;stroke:none;stroke-width:0.26458332px;stroke-linecap:butt;stroke-linejoin:miter;stroke-opacity:1" />
      <ellipse
         ry="2.9765625"
         rx="3.0710564"
         cy="79.427452"
         cx="88.966148"
         id="path4555"
         style="opacity:1;fill:none;fill-opacity:1;stroke:none;stroke-width:2;stroke-linecap:butt;stroke-linejoin:miter;stroke-miterlimit:4;stroke-dasharray:none;stroke-opacity:1" />
      <path
         inkscape:connector-curvature="0"
         id="path4557"
         d="M 78.90253,86.183778 63.877975,88.357143"
         style="fill:none;fill-rule:evenodd;stroke:#000000;stroke-width:1.5;stroke-linecap:round;stroke-linejoin:miter;stroke-miterlimit:4;stroke-dasharray:none;stroke-opacity:1" />
      <path
         inkscape:connector-curvature="0"
         id="path4559"
         d="M 78.90253,82.404018 64.255951,81.081101"
         style="fill:none;fill-rule:evenodd;stroke:#000000;stroke-width:1.5;stroke-linecap:round;stroke-linejoin:miter;stroke-miterlimit:4;stroke-dasharray:none;stroke-opacity:1" />
      <path
         inkscape:connector-curvature="0"
         id="path4561"
         d="m 131.53571,82.026039 14.3631,-1.133927"
         style="fill:none;fill-rule:evenodd;stroke:#000000;stroke-width:1.5;stroke-linecap:round;stroke-linejoin:miter;stroke-miterlimit:4;stroke-dasharray:none;stroke-opacity:1" />
      <path
         inkscape:connector-curvature="0"
         id="path4563"
         d="m 131.34672,86.372768 14.55209,1.889879"
         style="fill:none;fill-rule:evenodd;stroke:#000000;stroke-width:1.5;stroke-linecap:round;stroke-linejoin:miter;stroke-miterlimit:4;stroke-dasharray:none;stroke-opacity:1" />
      <path
         sodipodi:nodetypes="cccccc"
         inkscape:connector-curvature="0"
         id="path4597"
         d="m 100.24099,95.813034 c 3.12083,-3.356003 6.89167,-3.225508 9.62316,-1.408273 l 0.75964,-3.328252 -5.24035,-5.096743 -5.425938,4.862882 z"
         style="fill:#411104;fill-opacity:1;fill-rule:evenodd;stroke:none;stroke-width:0.27990228px;stroke-linecap:butt;stroke-linejoin:miter;stroke-opacity:1" />
      <path
         sodipodi:nodetypes="ccc"
         inkscape:connector-curvature="0"
         id="path4565"
         d="m 95.816964,85.238838 c 2.534887,7.057144 5.902046,6.480146 9.444646,-0.06682 2.37756,2.80164 4.53572,9.650059 9.44941,0.09449"
         style="fill:none;fill-rule:evenodd;stroke:#000000;stroke-width:1;stroke-linecap:round;stroke-linejoin:miter;stroke-miterlimit:4;stroke-dasharray:none;stroke-opacity:1" />
      <path
         sodipodi:nodetypes="cccc"
         inkscape:connector-curvature="0"
         id="path4581"
         d="m 100.54167,94.782737 c 3.06871,-2.635091 6.50512,-2.267223 9.32248,-0.377976 0.7015,3.603698 -1.43605,6.586029 -5.07025,7.276039 -2.99445,-1.09118 -4.45805,-3.300123 -4.25223,-6.898063 z"
         style="fill:#ea6559;fill-opacity:1;fill-rule:evenodd;stroke:#eb6557;stroke-width:0.26458332px;stroke-linecap:butt;stroke-linejoin:miter;stroke-opacity:1" />
      <path
         sodipodi:nodetypes="ccc"
         inkscape:connector-curvature="0"
         id="path4569"
         d="m 100.25818,90.341518 c -0.970817,6.262484 -0.265134,10.848472 4.53572,11.339282 6.04843,0.16785 5.20291,-6.258504 5.76413,-11.339282"
         style="fill:none;fill-rule:evenodd;stroke:#000000;stroke-width:1;stroke-linecap:round;stroke-linejoin:miter;stroke-miterlimit:4;stroke-dasharray:none;stroke-opacity:1" />
      <ellipse
         ry="0.94494045"
         rx="4.299479"
         cy="88.92411"
         cx="86.036827"
         id="path4571"
         style="opacity:1;fill:none;fill-opacity:1;stroke:none;stroke-width:2;stroke-linecap:round;stroke-linejoin:miter;stroke-miterlimit:4;stroke-dasharray:none;stroke-opacity:1" />
      <ellipse
         ry="1.0356694"
         rx="3.541321"
         cy="88.362724"
         cx="86.194427"
         id="path4583"
         style="opacity:1;fill:#ea6559;fill-opacity:1;stroke:#eb6557;stroke-width:1;stroke-linecap:round;stroke-linejoin:miter;stroke-miterlimit:4;stroke-dasharray:none;stroke-opacity:1" />
      <ellipse
         ry="3.1738257"
         rx="3.5079124"
         cy="78.941475"
         cx="88.098717"
         id="path4589"
         style="opacity:1;fill:#000000;fill-opacity:1;stroke:none;stroke-width:1;stroke-linecap:round;stroke-linejoin:miter;stroke-miterlimit:4;stroke-dasharray:none;stroke-opacity:1" />
      <circle
         r="0.96885204"
         cy="77.80558"
         cx="87.43055"
         id="path4591"
         style="opacity:1;fill:#faece1;fill-opacity:1;stroke:none;stroke-width:1;stroke-linecap:round;stroke-linejoin:miter;stroke-miterlimit:4;stroke-dasharray:none;stroke-opacity:1" />
      <ellipse
         style="opacity:1;fill:#000000;fill-opacity:1;stroke:none;stroke-width:1;stroke-linecap:round;stroke-linejoin:miter;stroke-miterlimit:4;stroke-dasharray:none;stroke-opacity:1"
         id="ellipse4593"
         cx="122.2424"
         cy="79.208748"
         rx="3.5079124"
         ry="3.1738257" />
      <circle
         style="opacity:1;fill:#faece1;fill-opacity:1;stroke:none;stroke-width:1;stroke-linecap:round;stroke-linejoin:miter;stroke-miterlimit:4;stroke-dasharray:none;stroke-opacity:1"
         id="circle4595"
         cx="121.57423"
         cy="78.072853"
         r="0.96885204" />
      <ellipse
         style="opacity:1;fill:#ea6559;fill-opacity:1;stroke:#eb6557;stroke-width:1;stroke-linecap:round;stroke-linejoin:miter;stroke-miterlimit:4;stroke-dasharray:none;stroke-opacity:1"
         id="ellipse4585"
         cx="123.94625"
         cy="88.429543"
         rx="3.541321"
         ry="1.0356694" />
      <path
         sodipodi:nodetypes="ccccc"
         inkscape:connector-curvature="0"
         id="path4599"
         d="m 109.78096,58.595581 c 3.36228,1.60119 4.39183,2.834557 4.27631,4.610398 -1.55258,3.407062 -4.08415,2.135983 -6.1472,1.469984 1.67125,1.157358 4.52474,1.466556 2.93997,4.810851 -3.23414,2.847783 -5.29598,0.461903 -7.81764,-1.870888"
         style="fill:none;fill-rule:evenodd;stroke:#000000;stroke-width:1;stroke-linecap:round;stroke-linejoin:miter;stroke-miterlimit:4;stroke-dasharray:none;stroke-opacity:1" />
      <path
         sodipodi:nodetypes="ccccccc"
         inkscape:connector-curvature="0"
         id="path4601"
         d="m 88.635416,62.087796 c -1.202077,-2.403956 -3.383407,-4.798681 -7.318662,-6.833084 8.157408,-3.65505 13.625322,-5.820506 23.319266,-5.746295 9.89822,1.032352 17.08747,3.690083 24.38835,6.280835 -4.54818,3.298406 -4.77077,4.525474 -6.93806,6.487533 l -14.97805,-4.082109 c -6.27783,-0.446102 -13.312591,1.372149 -18.472844,3.89312 z"
         style="fill:#faece1;fill-opacity:1;fill-rule:evenodd;stroke:#000000;stroke-width:1;stroke-linecap:round;stroke-linejoin:miter;stroke-miterlimit:4;stroke-dasharray:none;stroke-opacity:1" />
      <path
         sodipodi:nodetypes="cc"
         inkscape:connector-curvature="0"
         id="path4607"
         d="m 129.02437,55.789253 c -0.65572,-4.409397 -1.67238,-8.735498 -6.8822,-12.093948"
         style="fill:none;fill-rule:evenodd;stroke:#000000;stroke-width:1;stroke-linecap:round;stroke-linejoin:miter;stroke-miterlimit:4;stroke-dasharray:none;stroke-opacity:1" />
      <path
         sodipodi:nodetypes="cccccc"
         inkscape:connector-curvature="0"
         id="path4609"
         d="m 104.48318,85.856312 c -1.22465,-0.705992 -1.53786,-1.738066 -0.0562,-3.070731 0.58141,-0.284443 1.72182,-0.536326 2.36747,-0.08961 1.9261,1.539025 0.0954,2.677035 -0.78498,3.496415 l -0.79139,0.05905 z"
         style="fill:#000000;fill-opacity:1;fill-rule:evenodd;stroke:#000000;stroke-width:0.26458332px;stroke-linecap:butt;stroke-linejoin:miter;stroke-opacity:1" />
    </g>
  </g>
</svg>
